<?xml version="1.0"?>
<svg xmlns="http://www.w3.org/2000/svg" xmlns:xlink="http://www.w3.org/1999/xlink" version="1.1" id="Layer_1" x="0px" y="0px" viewBox="0 0 481.95 481.95" style="enable-background:new 0 0 481.95 481.95;" xml:space="preserve" width="512px" height="512px" class=""><g><rect x="217.257" y="314.15" style="fill:#3EA69B;" width="45.7" height="62" data-original="#3EA69B"/><rect x="258.857" y="314.15" style="fill:#31978C;" width="36.7" height="62" data-original="#31978C"/><rect x="185.357" y="314.15" style="fill:#44C4A1;" width="36.7" height="62" data-original="#44C4A1"/><rect x="185.657" y="376.25" style="fill:#EBF0F3;" width="109.6" height="24.7" data-original="#EBF0F3"/><path style="fill:#2F4859;" d="M283.857,481.95h-25.3v-81.3h36.7v69.9C295.257,476.55,290.457,481.95,283.857,481.95z" data-original="#2F4859"/><rect x="222.357" y="400.65" style="fill:#3A556A;" width="36.7" height="81.3" data-original="#3A556A"/><path style="fill:#64798A;" d="M222.357,481.95h-25.3c-6.6,0-11.4-5.4-11.4-11.4v-69.9h36.7V481.95L222.357,481.95z" data-original="#64798A"/><path style="fill:#5188D8" d="M454.857,239.85l-35.5-11.4c-4.8-29.5-17.5-57.8-36.7-81.9l15.7-33.7c2.4-5.4,0.6-12-4.2-15.7  l-47-33.7c-4.8-3.6-11.4-3-16.3,1.2l-27.7,25.3c-29-10.9-59.7-13.9-89.2-9.1l-21.7-30.1c-3.6-4.8-10.2-6.6-15.7-4.2l-53,23.5  c-5.4,2.4-8.4,8.4-7.2,14.5l7.8,36.1c-11.4,9.6-21.7,20.5-30.7,33.1s-16.3,25.9-21.7,39.8l-36.7,2.4c-6,0.6-10.8,5.4-11.4,11.4  l-6,57.8c-0.6,6,3,11.4,9,13.3l35.5,11.4c4.8,29.5,17.5,57.8,36.7,81.9l-15.7,33.7c-2.4,5.4-0.6,12,4.2,15.7l47,33.7  c4.8,3.6,11.4,3,16.3-1.2l27.7-25.3c28.9,10.8,59.6,13.9,89.1,9l21.7,30.1c3.6,4.8,10.2,6.6,15.7,4.2l53-23.5  c5.4-2.4,8.4-8.4,7.2-14.5l-7.8-36.1c11.4-9.6,21.7-20.5,30.7-33.1s16.3-25.9,21.7-39.8l37.3-3.6c6-0.6,10.8-5.4,11.4-11.4l6-57.8  C463.957,247.05,460.357,241.65,454.857,239.85z M348.957,337.35c-43.3,59.9-127.5,73.5-187.3,29.7  c-59.9-43.3-73.5-127.5-29.6-187.3c43.3-59.9,127.5-73.5,187.3-29.6C379.157,193.35,392.857,277.45,348.957,337.35z" data-original="#E56353" class="" data-old_color="#5087D8"/><path style="fill:#001EFF" d="M320.557,148.25c-60.8-44-146.4-30.7-190.3,30.1s-30.8,146.4,30.1,190.4s146.4,30.7,190.3-30.1  C395.257,277.75,381.457,192.25,320.557,148.25z M169.357,356.75c-54.2-39.2-66.3-115-27.1-169.3s115-66.3,169.3-27.1  s66.3,115,27.1,169.3C299.457,383.85,223.557,395.85,169.357,356.75z" data-original="#D15241" class="active-path" data-old_color="#D15241"/><rect x="217.257" y="94.55" style="fill:#3EA69B;" width="45.7" height="224.3" data-original="#3EA69B"/><rect x="258.757" y="94.55" style="fill:#31978C;" width="36.7" height="224.3" data-original="#31978C"/><rect x="185.357" y="94.55" style="fill:#44C4A1;" width="36.7" height="224.3" data-original="#44C4A1"/><path style="fill:#FCD462" d="M185.657,95.25l33.7-62c5.4,5.4,12.6,9,21.1,9s15.7-3.6,21.1-9l33.7,62H185.657z" data-original="#FCD462" class=""/><path style="fill:#64798A;" d="M240.457,42.25c-8.4,0-15.7-3.6-21.1-9l16.3-30.1c1.8-4.2,7.8-4.2,9.6,0l16.3,30.1  C256.157,38.65,248.857,42.25,240.457,42.25z" data-original="#64798A"/></g> </svg>
